<mxfile host="Electron" modified="2024-02-07T23:09:52.025Z" agent="Mozilla/5.0 (Macintosh; Intel Mac OS X 10_15_7) AppleWebKit/537.36 (KHTML, like Gecko) draw.io/22.1.21 Chrome/120.0.6099.109 Electron/28.1.0 Safari/537.36" etag="1yrZwnVpqCIcYGWieqFj" version="22.1.21" type="device">
  <diagram name="Page-1" id="e6PdbGseR7VZRZWQud6H">
    <mxGraphModel dx="2021" dy="1767" grid="1" gridSize="10" guides="1" tooltips="1" connect="1" arrows="1" fold="1" page="1" pageScale="1" pageWidth="827" pageHeight="1169" math="0" shadow="0">
      <root>
        <mxCell id="0" />
        <mxCell id="1" parent="0" />
        <mxCell id="k6b4_02PT93n83dl0_Wz-2" value="" style="rounded=1;whiteSpace=wrap;html=1;fillColor=#d5e8d4;strokeColor=#82b366;" parent="1" vertex="1">
          <mxGeometry x="-230" y="-530" width="1100" height="850" as="geometry" />
        </mxCell>
        <mxCell id="k6b4_02PT93n83dl0_Wz-3" value="desktop" style="sketch=0;outlineConnect=0;gradientColor=none;fontColor=#545B64;strokeColor=none;fillColor=#879196;dashed=0;verticalLabelPosition=bottom;verticalAlign=top;align=center;html=1;fontSize=12;fontStyle=0;aspect=fixed;shape=mxgraph.aws4.illustration_desktop;pointerEvents=1" parent="1" vertex="1">
          <mxGeometry x="-540" y="-156.75" width="100" height="91" as="geometry" />
        </mxCell>
        <mxCell id="k6b4_02PT93n83dl0_Wz-4" value="&lt;font color=&quot;#cc6600&quot;&gt;Frontend&lt;br&gt;SPA&lt;/font&gt;" style="rounded=1;whiteSpace=wrap;html=1;fillColor=#ffe6cc;strokeColor=#d79b00;" parent="1" vertex="1">
          <mxGeometry x="-190" y="-207.12" width="120" height="270" as="geometry" />
        </mxCell>
        <mxCell id="k6b4_02PT93n83dl0_Wz-5" value="&lt;font color=&quot;#cc6600&quot;&gt;Gateway&lt;/font&gt;" style="rounded=1;whiteSpace=wrap;html=1;fillColor=#fff2cc;strokeColor=#d6b656;" parent="1" vertex="1">
          <mxGeometry x="-10" y="-144" width="60" height="143.75" as="geometry" />
        </mxCell>
        <mxCell id="k6b4_02PT93n83dl0_Wz-6" value="&lt;font color=&quot;#cc6600&quot;&gt;Innovatory service&lt;br&gt;Springboot&lt;/font&gt;" style="rounded=1;whiteSpace=wrap;html=1;fillColor=#e1d5e7;strokeColor=#9673a6;" parent="1" vertex="1">
          <mxGeometry x="385.5" y="-65.75" width="120" height="120" as="geometry" />
        </mxCell>
        <mxCell id="k6b4_02PT93n83dl0_Wz-9" value="" style="image;sketch=0;aspect=fixed;html=1;points=[];align=center;fontSize=12;image=img/lib/mscae/Docker.svg;" parent="1" vertex="1">
          <mxGeometry x="639" y="-580" width="160" height="131.2" as="geometry" />
        </mxCell>
        <mxCell id="d20cZ_9NGkUB0knLJlD9-2" value="&lt;font color=&quot;#cc6600&quot;&gt;menu ETL&lt;br&gt;Python&lt;/font&gt;" style="rounded=1;whiteSpace=wrap;html=1;fillColor=#e1d5e7;strokeColor=#9673a6;" parent="1" vertex="1">
          <mxGeometry x="600" y="135" width="120" height="120" as="geometry" />
        </mxCell>
        <mxCell id="d20cZ_9NGkUB0knLJlD9-3" value="" style="rounded=1;whiteSpace=wrap;html=1;fillColor=#fff2cc;strokeColor=#d6b656;" parent="1" vertex="1">
          <mxGeometry x="110" y="-490" width="140" height="757.5" as="geometry" />
        </mxCell>
        <mxCell id="d20cZ_9NGkUB0knLJlD9-4" value="&lt;font color=&quot;#cc6600&quot;&gt;Menu service&lt;br&gt;Typescript&lt;/font&gt;" style="rounded=1;whiteSpace=wrap;html=1;fillColor=#dae8fc;strokeColor=#6c8ebf;" parent="1" vertex="1">
          <mxGeometry x="130" y="150" width="100" height="90" as="geometry" />
        </mxCell>
        <mxCell id="l4fY2LM750dYpXXW07Bl-1" value="&lt;font color=&quot;#cc6600&quot;&gt;Rewards service&lt;br&gt;Typescript&lt;/font&gt;" style="rounded=1;whiteSpace=wrap;html=1;fillColor=#dae8fc;strokeColor=#6c8ebf;" vertex="1" parent="1">
          <mxGeometry x="130" y="30" width="100" height="90" as="geometry" />
        </mxCell>
        <mxCell id="l4fY2LM750dYpXXW07Bl-2" value="&lt;font color=&quot;#cc6600&quot;&gt;Order service&lt;br&gt;Typescript&lt;/font&gt;" style="rounded=1;whiteSpace=wrap;html=1;fillColor=#dae8fc;strokeColor=#6c8ebf;" vertex="1" parent="1">
          <mxGeometry x="130" y="-219" width="100" height="90" as="geometry" />
        </mxCell>
        <mxCell id="l4fY2LM750dYpXXW07Bl-3" value="&lt;font color=&quot;#cc6600&quot;&gt;Table bookings service&lt;br&gt;Typescript&lt;/font&gt;" style="rounded=1;whiteSpace=wrap;html=1;fillColor=#dae8fc;strokeColor=#6c8ebf;" vertex="1" parent="1">
          <mxGeometry x="130" y="-90" width="100" height="90" as="geometry" />
        </mxCell>
        <mxCell id="l4fY2LM750dYpXXW07Bl-4" value="&lt;font color=&quot;#cc6600&quot;&gt;Location service&lt;br&gt;Typescript&lt;/font&gt;" style="rounded=1;whiteSpace=wrap;html=1;fillColor=#dae8fc;strokeColor=#6c8ebf;" vertex="1" parent="1">
          <mxGeometry x="130" y="-350" width="100" height="90" as="geometry" />
        </mxCell>
        <mxCell id="l4fY2LM750dYpXXW07Bl-5" value="&lt;font color=&quot;#cc6600&quot;&gt;Entertainment service&lt;br&gt;Typescript&lt;/font&gt;" style="rounded=1;whiteSpace=wrap;html=1;fillColor=#dae8fc;strokeColor=#6c8ebf;" vertex="1" parent="1">
          <mxGeometry x="130" y="-470" width="100" height="90" as="geometry" />
        </mxCell>
        <mxCell id="l4fY2LM750dYpXXW07Bl-6" value="&lt;h2&gt;&lt;font color=&quot;#cc6600&quot;&gt;Experience Layer&lt;/font&gt;&lt;/h2&gt;" style="text;html=1;align=center;verticalAlign=middle;resizable=0;points=[];autosize=1;strokeColor=none;fillColor=none;" vertex="1" parent="1">
          <mxGeometry x="95" y="-535" width="170" height="60" as="geometry" />
        </mxCell>
        <mxCell id="l4fY2LM750dYpXXW07Bl-7" value="Menu DB&lt;br&gt;DynamoDB" style="shape=cylinder3;whiteSpace=wrap;html=1;boundedLbl=1;backgroundOutline=1;size=15;" vertex="1" parent="1">
          <mxGeometry x="400" y="130.5" width="91" height="129" as="geometry" />
        </mxCell>
        <mxCell id="l4fY2LM750dYpXXW07Bl-8" value="Inventory DB&lt;br&gt;PostgreSQL" style="shape=cylinder3;whiteSpace=wrap;html=1;boundedLbl=1;backgroundOutline=1;size=15;" vertex="1" parent="1">
          <mxGeometry x="620" y="-65.75" width="91" height="129" as="geometry" />
        </mxCell>
      </root>
    </mxGraphModel>
  </diagram>
</mxfile>
